# Apple ModelIO OBJ File: cube
mtllib cube.mtl
g 
v -0.5 -0.633149 0.5
v 0.5 -0.633149 0.5
v 0.5 0.366851 0.5
v -0.5 0.366851 0.5
v 0.5 0.366851 -0.5
v -0.5 0.366851 -0.5
v 0.5 -0.633149 -0.5
v -0.5 -0.633149 -0.5
vn 0 0 1
vn 0 1 0
vn 0 0 -1
vn 0 -1 0
vn 1 0 0
vn -1 0 0
vt 0.375 0
vt 0.625 0
vt 0.625 0.25
vt 0.375 0.25
vt 0.625 0.5
vt 0.375 0.5
vt 0.625 0.75
vt 0.375 0.75
vt 0.625 1
vt 0.375 1
vt 0.875 0
vt 0.875 0.25
vt 0.125 0
vt 0.125 0.25
usemtl material_1
f 1/1/1 2/2/1 3/3/1 4/4/1 
f 4/4/2 3/3/2 5/5/2 6/6/2 
f 6/6/3 5/5/3 7/7/3 8/8/3 
f 8/8/4 7/7/4 2/9/4 1/10/4 
f 2/2/5 7/11/5 5/12/5 3/3/5 
f 8/13/6 1/1/6 4/4/6 6/14/6 
s off
